<?xml version="1.0" encoding="utf-8"?>
<!-- Generator: Adobe Illustrator 26.0.1, SVG Export Plug-In . SVG Version: 6.00 Build 0)  -->
<svg version="1.1" id="Layer_1" xmlns="http://www.w3.org/2000/svg" xmlns:xlink="http://www.w3.org/1999/xlink" x="0px" y="0px"
	 viewBox="0 0 1920 1080" style="enable-background:new 0 0 1920 1080;" xml:space="preserve">
<style type="text/css">
	.st0{fill:#101011;}
	.st1{fill:#1D1D1B;}
	.st2{fill:#3F51B5;}
	.st3{fill:#009688;}
	.st4{fill:#FF5722;}
	.st5{fill:#FFC107;}
</style>
<path class="st0" d="M358.59,527.82h-29.8c7.3,8.3,15.9,14.1,23.9,13.2c3.5-0.4,7.9-2.1,12.8-7.4
	C363.19,531.72,360.89,529.72,358.59,527.82z M347.79,485.02c-9.3-6.3-24-10.6-31.8-7.7v14.8h24c4.4,2.2,8.65,1.35,12.05,2.65
	l7.85-1.04C358.99,490.73,353.49,488.82,347.79,485.02z M322.49,493.6c-2.2-1.8-4.4,0.21-6.6-1.59l2.79,2.75L322.49,493.6z
	 M361.09,497.42v30.3h-45.1v32.6h25.3c12.4,0,22.7-2.2,30.8-6.5c8.2-4.3,14.1-10,18-17.1c3.9-7.1,5.7-14.6,5.7-22.7
	c0.1-8.9-2-16.9-6.1-24s-10.3-12.6-18.5-16.7c-8.2-4-18.2-6.1-29.9-6.1h-25.3v30.2 M285.69,560.42v58h30.3v-58H285.69z"/>
<rect x="407.49" y="500.62" class="st0" width="30.3" height="117.8"/>
<path class="st0" d="M451.49,458.22"/>
<path class="st0" d="M481.79,549.32l40.3-50.9c11.1,0,22.2,0,33.3,0c-15.6,20.1-31.1,40.1-46.7,60.2c15.9,19.9,31.7,39.8,47.6,59.8
	c-11.3,0-22.6,0-33.8,0l-40.7-51.1"/>
<path class="st0" d="M573.49,615.02c-7.8-3.5-14-8.3-18.5-14.4c-4.5-6.1-7-12.8-7.5-20.1h30.5c0.6,4.6,2.9,8.4,6.8,11.5
	c3.9,3.1,8.9,4.5,14.8,4.5c5.8,0,10.3-1.1,13.5-3.5c3.2-2.4,4.9-5.3,4.9-8.9c0-3.9-2-6.8-6-8.8s-10.3-4.1-18.9-6.4
	c-9-2.2-16.3-4.4-22-6.7c-5.7-2.3-10.6-5.8-14.7-10.6c-4.1-4.8-6.2-11.2-6.2-19.3c0-6.6,1.9-12.7,5.7-18.2c3.8-5.5,9.3-9.8,16.5-13
	c7.1-3.2,15.5-4.8,25.2-4.8c14.3,0,25.7,3.6,34.2,10.7s13.2,16.8,14.1,28.9h-29c-0.4-4.8-2.4-8.6-6-11.4c-3.5-2.8-8.3-4.2-14.2-4.2
	c-5.5,0-9.7,1-12.7,3s-4.4,4.8-4.4,8.4c0,4,2,7.1,6.1,9.2c4,2.1,10.3,4.2,18.8,6.4c8.7,2.2,15.8,4.4,21.4,6.7
	c5.6,2.3,10.5,5.9,14.6,10.7c4.1,4.8,6.2,11.2,6.4,19.2c0,6.9-1.9,13.1-5.7,18.6c-3.8,5.5-9.3,9.8-16.5,12.9
	c-7.2,3.1-15.5,4.6-25,4.6C590.09,620.32,581.29,618.62,573.49,615.02z"/>
<path class="st0" d="M811.09,458.22v160.2h-30.3v-160.2H811.09L811.09,458.22z"/>
<rect x="407.49" y="458.22" class="st1" width="30.3" height="30.1"/>
<rect x="451.49" y="458.22" class="st0" width="30.3" height="117.8"/>
<rect x="451.49" y="588.32" class="st2" width="30.3" height="30.1"/>
<rect x="822.59" y="588.52" class="st3" width="30.3" height="30.1"/>
<g>
	<path d="M771.19,566.72h-87.6c0.7,8.6,3.8,15.4,9.1,20.3c5.3,4.9,11.9,7.4,19.7,7.4c11.2,0,19.2-4.8,24-14.5h32.6
		c-3.5,11.5-10.1,21-19.9,28.4c-9.8,7.4-21.8,11.1-36.1,11.1c-11.5,0-21.9-2.6-31-7.7c-9.2-5.1-16.3-12.4-21.4-21.7
		c-5.1-9.4-7.7-20.2-7.7-32.4c0-12.4,2.5-23.3,7.6-32.6c5-9.4,12.1-16.6,21.2-21.6c9.1-5,19.5-7.6,31.4-7.6
		c11.4,0,21.6,2.4,30.6,7.4c9,4.9,16,11.9,21,20.9s7.5,19.3,7.5,31C771.99,559.42,771.69,563.32,771.19,566.72z M740.69,546.42
		c-0.1-7.8-3-14-8.4-18.7c-5.5-4.7-12.2-7-20.1-7c-7.5,0-13.8,2.3-18.9,6.8c-5.1,4.5-8.3,10.8-9.4,18.9H740.69z"/>
</g>
<g>
	<g>
		<path d="M1173.59,465.82c1.5-2.7,3.2-6.4,6.8-6.4c3.1,0.5,4.8,3.8,6,6.4c1.1,3.1,2.4,6.7,1.5,10c-1.7,6.3-3.3,12.5-4.9,18.8
			c16.6-1.4,33.2-2.7,50-4.1c3.6-0.2,7.4-1,10.8,0.7c1.5,1,0.1,2.8-0.8,3.7c-3.3,2.7-7.6,3.8-11.7,4.3c-16.5,1.6-33.2,1.6-49.8,1.7
			c-6.5,24.8-13.7,49.6-15.5,75.2c-0.5,9.7-0.1,21.1,7.5,28.2c7.7,6.9,18.8,5.6,28.4,5.2c37.1-2.3,73.9-8.2,110.7-13.5
			c67.2-10,134.2-21,201.8-27.6c26.3-2.5,52.8-4.5,79.2-4.6c10.1,0.1,20.4,0.3,30.3,2.6c3.2,0.9,7.4,1.9,8.9,5.4
			c0.6,3.2-2.5,5.5-4.9,7.1c-7.7,4.5-17,6.5-25.9,5c-5.2-0.6-8.6-5.2-13.6-6.4c-10.1-2.9-20.8-2.6-31.2-2.4
			c-28.2,1-56.2,4.5-84.1,7.9c-75.6,9.5-150.7,21.7-226.2,30.7c-17.7,2-35.4,4-53.2,4.5c-10.1,0.1-20.8-0.1-30-4.9
			c-6.4-3.3-10.9-9.5-13-16.4c-2.4-7.7-2.4-15.9-2.1-23.9c-12.7,13.7-26.4,26.9-42,37.3c-8.5,5.4-17.8,10.6-28.1,11.2
			c-6.2,0.3-13.2-1-16.9-6.4c-6.1-9.2-4-21.8-11.6-30.2c-5.6-6.4-14.6-7.1-22.5-7.5c-8.3-0.6-14.2-7.7-15.9-15.5
			c-10,14.6-20.9,28.9-34.8,40c-5.4,4.1-11.5,8-18.4,8.4c-6.5,0.3-12.6-3.4-16.4-8.6c-5.7-7.7-8.2-17.3-9.5-26.8
			c-10.8,12-22.4,23.9-36.9,31.3c-6.1,3.2-13.9,4-19.8,0c-4.5-3.3-6-9.3-6.6-14.6c-1.6-12.3,3.4-24.6,11.1-34.1
			c7.4-9.2,18.1-16.2,30.1-17.1c5.5-0.4,11.7,0,16.1,3.8c3.8,3.1,4.7,8.4,4.7,13.1c2.7,2.6,5.9,4.6,8.9,6.8c1.6,0.9,1.9,3,2.2,4.7
			c1.1,9.5,2.8,19.5,8.4,27.6c2.7,4.1,8,7.3,13.1,5.3c7.7-3.3,13.3-9.8,18.8-15.9c11.4-13.5,21.5-28.1,29.4-43.9
			c2.3-4.4,2.6-10.2,6.9-13.3c3.7,0,6.2,3.6,6.8,6.8c-2.1,6.5-5.3,13-4.3,20c0.6,4.7,4.4,8.3,8.8,9.7c9.9,4.2,21.9-0.3,31,6.5
			c7.7,5.6,8.5,15.9,10.9,24.5c1.1,4.9,4.2,10.2,9.7,11c9.1,1.4,17.7-3.3,25.1-8.2c15.8-10.7,28.9-24.7,41.9-38.5
			c0.9-0.9,1.5-2,1.5-3.3c2.5-19.1,7.5-37.7,12.6-56.2c-8.9-0.6-18,0.2-26.5-2.2c-1.9-0.7-4.9-1.7-4.6-4.2c0.8-2.8,4.4-3,6.8-3.3
			c8.9-0.4,17.6,1.8,26.1,3.4C1166.99,485.02,1169.59,475.22,1173.59,465.82z M912.69,551.92c-8.2,2.9-14.1,9.7-19.2,16.4
			c-4.4,6.5-9,13.5-9.2,21.5c0.3,3.4,4.2,1,6,0.1c14.1-8.9,25-21.8,36.1-34C923.39,551.72,917.59,550.12,912.69,551.92z"/>
	</g>
</g>
<rect x="285.69" y="467.22" class="st4" width="30.3" height="30.17"/>
<rect x="285.69" y="527.82" class="st5" width="30.3" height="32.5"/>
</svg>
